<mxfile host="app.diagrams.net" modified="2023-10-09T11:32:25.626Z" agent="Mozilla/5.0 (Windows NT 10.0; Win64; x64) AppleWebKit/537.36 (KHTML, like Gecko) Chrome/117.0.0.0 Safari/537.36" etag="K2P5Cqdxgf6qg3Ddx54r" version="22.0.3" type="github">
  <diagram id="C5RBs43oDa-KdzZeNtuy" name="Page-1">
    <mxGraphModel dx="660" dy="643" grid="1" gridSize="10" guides="1" tooltips="1" connect="1" arrows="1" fold="1" page="1" pageScale="1" pageWidth="827" pageHeight="1169" math="0" shadow="0">
      <root>
        <mxCell id="WIyWlLk6GJQsqaUBKTNV-0" />
        <mxCell id="WIyWlLk6GJQsqaUBKTNV-1" parent="WIyWlLk6GJQsqaUBKTNV-0" />
        <mxCell id="CJKHOdJ8rTOLBs5QuWpi-0" value="" style="edgeStyle=orthogonalEdgeStyle;rounded=0;orthogonalLoop=1;jettySize=auto;html=1;" edge="1" parent="WIyWlLk6GJQsqaUBKTNV-1" source="CJKHOdJ8rTOLBs5QuWpi-1" target="CJKHOdJ8rTOLBs5QuWpi-6">
          <mxGeometry relative="1" as="geometry" />
        </mxCell>
        <mxCell id="CJKHOdJ8rTOLBs5QuWpi-1" value="" style="strokeWidth=2;html=1;shape=mxgraph.flowchart.start_2;whiteSpace=wrap;" vertex="1" parent="WIyWlLk6GJQsqaUBKTNV-1">
          <mxGeometry x="115" y="25" width="30" height="30" as="geometry" />
        </mxCell>
        <mxCell id="CJKHOdJ8rTOLBs5QuWpi-2" value="" style="strokeWidth=2;html=1;shape=mxgraph.flowchart.terminator;whiteSpace=wrap;" vertex="1" parent="WIyWlLk6GJQsqaUBKTNV-1">
          <mxGeometry x="97.5" y="585" width="65" height="40" as="geometry" />
        </mxCell>
        <mxCell id="CJKHOdJ8rTOLBs5QuWpi-5" value="" style="edgeStyle=orthogonalEdgeStyle;rounded=0;orthogonalLoop=1;jettySize=auto;html=1;" edge="1" parent="WIyWlLk6GJQsqaUBKTNV-1" source="CJKHOdJ8rTOLBs5QuWpi-6" target="CJKHOdJ8rTOLBs5QuWpi-8">
          <mxGeometry relative="1" as="geometry" />
        </mxCell>
        <mxCell id="CJKHOdJ8rTOLBs5QuWpi-6" value="inteiro valorHora = 0&lt;br&gt;Inteiro hrTrabalho = 0&amp;nbsp;&lt;br&gt;interio salario = 0&lt;br&gt;const inteiro semanas = 4&lt;br&gt;const inteiro hrSem = 40" style="whiteSpace=wrap;html=1;strokeWidth=2;" vertex="1" parent="WIyWlLk6GJQsqaUBKTNV-1">
          <mxGeometry x="45" y="85" width="170" height="85" as="geometry" />
        </mxCell>
        <mxCell id="CJKHOdJ8rTOLBs5QuWpi-20" value="" style="edgeStyle=orthogonalEdgeStyle;rounded=0;orthogonalLoop=1;jettySize=auto;html=1;" edge="1" parent="WIyWlLk6GJQsqaUBKTNV-1" source="CJKHOdJ8rTOLBs5QuWpi-8" target="CJKHOdJ8rTOLBs5QuWpi-19">
          <mxGeometry relative="1" as="geometry" />
        </mxCell>
        <mxCell id="CJKHOdJ8rTOLBs5QuWpi-8" value="leia valorHora&lt;br style=&quot;border-color: var(--border-color);&quot;&gt;leia hrTrabalho&amp;nbsp;" style="html=1;strokeWidth=2;shape=manualInput;whiteSpace=wrap;rounded=1;size=26;arcSize=11;" vertex="1" parent="WIyWlLk6GJQsqaUBKTNV-1">
          <mxGeometry x="55" y="180" width="150" height="80" as="geometry" />
        </mxCell>
        <mxCell id="CJKHOdJ8rTOLBs5QuWpi-22" value="" style="edgeStyle=orthogonalEdgeStyle;rounded=0;orthogonalLoop=1;jettySize=auto;html=1;" edge="1" parent="WIyWlLk6GJQsqaUBKTNV-1" source="CJKHOdJ8rTOLBs5QuWpi-19" target="CJKHOdJ8rTOLBs5QuWpi-21">
          <mxGeometry relative="1" as="geometry" />
        </mxCell>
        <mxCell id="CJKHOdJ8rTOLBs5QuWpi-24" value="" style="edgeStyle=orthogonalEdgeStyle;rounded=0;orthogonalLoop=1;jettySize=auto;html=1;" edge="1" parent="WIyWlLk6GJQsqaUBKTNV-1" source="CJKHOdJ8rTOLBs5QuWpi-19" target="CJKHOdJ8rTOLBs5QuWpi-23">
          <mxGeometry relative="1" as="geometry" />
        </mxCell>
        <mxCell id="CJKHOdJ8rTOLBs5QuWpi-19" value="hrTrabalho&amp;nbsp;&amp;gt; &lt;br&gt;(semanas * hrSem)" style="rhombus;whiteSpace=wrap;html=1;strokeWidth=2;rounded=1;arcSize=11;" vertex="1" parent="WIyWlLk6GJQsqaUBKTNV-1">
          <mxGeometry x="267" y="160" width="140" height="120" as="geometry" />
        </mxCell>
        <mxCell id="wNKntKtIpD97b1sU3D4n-2" style="edgeStyle=orthogonalEdgeStyle;rounded=0;orthogonalLoop=1;jettySize=auto;html=1;entryX=0.5;entryY=0;entryDx=0;entryDy=0;" edge="1" parent="WIyWlLk6GJQsqaUBKTNV-1" source="CJKHOdJ8rTOLBs5QuWpi-21" target="wNKntKtIpD97b1sU3D4n-0">
          <mxGeometry relative="1" as="geometry" />
        </mxCell>
        <mxCell id="CJKHOdJ8rTOLBs5QuWpi-21" value="salario = hrTrabalho*valorHora" style="whiteSpace=wrap;html=1;strokeWidth=2;rounded=1;arcSize=11;" vertex="1" parent="WIyWlLk6GJQsqaUBKTNV-1">
          <mxGeometry x="277" y="320" width="120" height="60" as="geometry" />
        </mxCell>
        <mxCell id="wNKntKtIpD97b1sU3D4n-1" value="" style="edgeStyle=orthogonalEdgeStyle;rounded=0;orthogonalLoop=1;jettySize=auto;html=1;" edge="1" parent="WIyWlLk6GJQsqaUBKTNV-1" source="CJKHOdJ8rTOLBs5QuWpi-23" target="wNKntKtIpD97b1sU3D4n-0">
          <mxGeometry relative="1" as="geometry">
            <Array as="points">
              <mxPoint x="579" y="420" />
            </Array>
          </mxGeometry>
        </mxCell>
        <mxCell id="CJKHOdJ8rTOLBs5QuWpi-23" value="salario = (1.3*hrTrabalho - 0.3*Semanas*hrSem)&lt;br&gt;*valorHora" style="whiteSpace=wrap;html=1;strokeWidth=2;rounded=1;arcSize=11;" vertex="1" parent="WIyWlLk6GJQsqaUBKTNV-1">
          <mxGeometry x="497" y="175" width="163" height="90" as="geometry" />
        </mxCell>
        <mxCell id="wNKntKtIpD97b1sU3D4n-5" value="" style="edgeStyle=orthogonalEdgeStyle;rounded=0;orthogonalLoop=1;jettySize=auto;html=1;" edge="1" parent="WIyWlLk6GJQsqaUBKTNV-1" source="wNKntKtIpD97b1sU3D4n-0" target="wNKntKtIpD97b1sU3D4n-3">
          <mxGeometry relative="1" as="geometry" />
        </mxCell>
        <mxCell id="wNKntKtIpD97b1sU3D4n-0" value="" style="ellipse;whiteSpace=wrap;html=1;strokeWidth=2;rounded=1;arcSize=11;" vertex="1" parent="WIyWlLk6GJQsqaUBKTNV-1">
          <mxGeometry x="109.25" y="400" width="41.5" height="40" as="geometry" />
        </mxCell>
        <mxCell id="wNKntKtIpD97b1sU3D4n-6" value="" style="edgeStyle=orthogonalEdgeStyle;rounded=0;orthogonalLoop=1;jettySize=auto;html=1;" edge="1" parent="WIyWlLk6GJQsqaUBKTNV-1" source="wNKntKtIpD97b1sU3D4n-3" target="CJKHOdJ8rTOLBs5QuWpi-2">
          <mxGeometry relative="1" as="geometry" />
        </mxCell>
        <mxCell id="wNKntKtIpD97b1sU3D4n-3" value="escreva salario" style="shape=document;whiteSpace=wrap;html=1;boundedLbl=1;" vertex="1" parent="WIyWlLk6GJQsqaUBKTNV-1">
          <mxGeometry x="70" y="470" width="120" height="60" as="geometry" />
        </mxCell>
      </root>
    </mxGraphModel>
  </diagram>
</mxfile>
